<svg width="1920" height="1080" viewBox="0 0 1920 1080" fill="none" xmlns="http://www.w3.org/2000/svg">
<g clip-path="url(#clip0_27_126)">
<rect width="1920" height="1080" fill="#09090B"/>
<g filter="url(#filter0_f_27_126)">
<ellipse cx="940.5" cy="-58.5" rx="577.5" ry="222.5" fill="#5B87AB"/>
</g>
<path opacity="0.5" fill-rule="evenodd" clip-rule="evenodd" d="M-710.427 -1H-708.472V90.0906H-595.779V-1H-593.825V90.0906H-481.132V-1H-479.178V90.0906H-366.485V-1H-364.531V90.0906H-251.838V-1H-249.883V90.0906H-137.19V-1H-135.236V90.0906H-22.5432V-1H-20.5889V90.0906H92.1041V-1H94.0583V90.0906H206.751V-1H208.706V90.0906H321.399V-1H323.353V90.0906H334H437.573V-1H439.528V90.0906H552.221V-1H554.175V90.0906H666.868V-1H668.822V90.0906H781.515V-1H783.469V90.0906H896.162V-1H898.117V90.0906H1010.81V-1H1012.76V90.0906H1125.46V-1H1127.41V90.0906H1240.1V-1H1242.06V90.0906H1354.75V-1H1356.71V90.0906H1469.4V-1H1471.35V90.0906H1484H1586H1587.57V-1H1589.53V90.0906H1702.22V-1H1704.17V90.0906H1816.87V-1H1818.82V90.0906H1931.52V-1H1933.47V90.0906H2046.16V-1H2048.12V90.0906H2160.81V-1H2162.76V90.0906H2275.46V-1H2277.41V90.0906H2390.1V-1H2392.06V90.0906H2504.75V-1H2506.71V90.0906H2619.4V-1H2621.35V90.0906H2736V92.0425H2621.35V204.604H2736V206.556H2621.35V319.118H2736V321.07H2621.35V433.632H2736V435.584H2621.35V548.146H2736V550.098H2621.35V662.66H2736V664.612H2621.35V703H2619.4V664.612H2506.71V703H2504.75V664.612H2392.06V703H2390.1V664.612H2277.41V703H2275.46V664.612H2162.76V703H2160.81V664.612H2048.12V703H2046.16V664.612H1933.47V703H1931.52V664.612H1818.82V703H1816.87V664.612H1704.17V703H1702.22V664.612H1589.53V703H1587.57V664.612H1586H1484H1471.35V703H1469.4V664.612H1356.71V703H1354.75V664.612H1242.06V703H1240.1V664.612H1127.41V703H1125.46V664.612H1012.76V703H1010.81V664.612H898.116V703H896.162V664.612H783.469V703H781.515V664.612H668.822V703H666.868V664.612H554.175V703H552.221V664.612H439.528V703H437.573V664.612H334H323.353V703H321.399V664.612H208.706V703H206.751V664.612H94.0583V703H92.1041V664.612H-20.5889V703H-22.5432V664.612H-135.236V703H-137.19V664.612H-249.883V703H-251.838V664.612H-364.531V703H-366.485V664.612H-479.178V703H-481.132V664.612H-593.825V703H-595.779V664.612H-708.472V703H-710.427V664.612H-814V662.66H-710.427L-710.427 550.098H-814V548.146H-710.427V435.584H-814V433.632H-710.427L-710.427 321.07H-814V319.118H-710.427V206.556H-814V204.604H-710.427L-710.427 92.0425H-814V90.0906H-710.427V-1ZM334 662.66H437.573V550.098H334H323.353V662.66H334ZM334 548.146H437.573V435.584H334H323.353V548.146H334ZM334 433.632H437.573V321.07H334H323.353V433.632H334ZM334 319.118H437.573V206.556H334H323.353V319.118H334ZM334 204.604H437.573V92.0425H334H323.353V204.604H334ZM-708.472 204.604L-708.472 92.0425H-595.779L-595.779 204.604H-708.472ZM-593.825 204.604L-593.825 92.0425H-481.132L-481.132 204.604H-593.825ZM-479.178 204.604V92.0425H-366.485V204.604H-479.178ZM-364.531 204.604V92.0425H-251.838V204.604H-364.531ZM-249.883 204.604V92.0425H-137.19V204.604H-249.883ZM-135.236 204.604V92.0425H-22.5432V204.604H-135.236ZM-20.5889 204.604V92.0425H92.1041V204.604H-20.5889ZM94.0583 204.604V92.0425H206.751V204.604H94.0583ZM208.706 204.604V92.0425H321.399V204.604H208.706ZM-708.472 319.118V206.556H-595.779V319.118H-708.472ZM-593.825 319.118V206.556H-481.132V319.118H-593.825ZM-479.178 319.118V206.556H-366.485V319.118H-479.178ZM-364.531 319.118V206.556H-251.838V319.118H-364.531ZM-249.883 319.118V206.556H-137.19V319.118H-249.883ZM-135.236 319.118V206.556H-22.5432V319.118H-135.236ZM-20.5889 319.118V206.556H92.1041V319.118H-20.5889ZM94.0583 319.118V206.556H206.751V319.118H94.0583ZM208.706 319.118V206.556H321.399V319.118H208.706ZM-708.472 433.632L-708.472 321.07H-595.779V433.632H-708.472ZM-593.825 433.632V321.07H-481.132V433.632H-593.825ZM-479.178 433.632V321.07H-366.485L-366.485 433.632H-479.178ZM-364.531 433.632L-364.531 321.07H-251.838L-251.838 433.632H-364.531ZM-249.883 433.632L-249.883 321.07H-137.19V433.632H-249.883ZM-135.236 433.632V321.07H-22.5432V433.632H-135.236ZM-20.5889 433.632V321.07H92.1041V433.632H-20.5889ZM94.0583 433.632V321.07H206.751V433.632H94.0583ZM208.706 433.632V321.07H321.399V433.632H208.706ZM-708.472 548.146V435.584H-595.779L-595.779 548.146H-708.472ZM-593.825 548.146L-593.825 435.584H-481.132L-481.132 548.146H-593.825ZM-479.178 548.146L-479.178 435.584H-366.485V548.146H-479.178ZM-364.531 548.146V435.584H-251.838V548.146H-364.531ZM-249.883 548.146V435.584H-137.19V548.146H-249.883ZM-135.236 548.146V435.584H-22.5432V548.146H-135.236ZM-20.5889 548.146V435.584H92.1041V548.146H-20.5889ZM94.0583 548.146V435.584H206.751V548.146H94.0583ZM208.706 548.146V435.584H321.399V548.146H208.706ZM-708.472 662.66L-708.472 550.098H-595.779V662.66H-708.472ZM-593.825 662.66V550.098H-481.132V662.66H-593.825ZM-479.178 662.66V550.098H-366.485V662.66H-479.178ZM-364.531 662.66V550.098H-251.838V662.66H-364.531ZM-249.883 662.66V550.098H-137.19V662.66H-249.883ZM-135.236 662.66V550.098H-22.5432V662.66H-135.236ZM-20.5889 662.66V550.098H92.1041V662.66H-20.5889ZM94.0583 662.66V550.098H206.751V662.66H94.0583ZM208.706 662.66V550.098H321.399V662.66H208.706ZM1586 662.66H1484H1471.35V550.098H1484H1586H1587.57V662.66H1586ZM1586 548.146H1484H1471.35V435.584H1484H1586H1587.57V548.146H1586ZM1586 433.632H1484H1471.35V321.07H1484H1586H1587.57V433.632H1586ZM1586 319.118H1484H1471.35V206.556H1484H1586H1587.57V319.118H1586ZM1586 204.604H1484H1471.35V92.0425H1484H1586H1587.57V204.604H1586ZM439.528 92.0425V204.604H552.221V92.0425H439.528ZM554.175 92.0425V204.604H666.868V92.0425H554.175ZM668.822 92.0425V204.604H781.515V92.0425H668.822ZM783.469 92.0425V204.604H896.162V92.0425H783.469ZM898.117 92.0425V204.604H1010.81V92.0425H898.117ZM1012.76 92.0425V204.604H1125.46V92.0425H1012.76ZM1127.41 92.0425V204.604H1240.1V92.0425H1127.41ZM1242.06 92.0425V204.604H1354.75V92.0425H1242.06ZM1356.71 92.0425V204.604H1469.4V92.0425H1356.71ZM439.528 206.556V319.118H552.221V206.556H439.528ZM554.175 206.556V319.118H666.868V206.556H554.175ZM668.822 206.556V319.118H781.515V206.556H668.822ZM783.469 206.556V319.118H896.162V206.556H783.469ZM898.117 206.556V319.118H1010.81V206.556H898.117ZM1012.76 206.556V319.118H1125.46V206.556H1012.76ZM1127.41 206.556V319.118H1240.1V206.556H1127.41ZM1242.06 206.556V319.118H1354.75V206.556H1242.06ZM1356.71 206.556V319.118H1469.4V206.556H1356.71ZM439.528 321.07V433.632H552.221V321.07H439.528ZM554.175 321.07V433.632H666.868V321.07H554.175ZM668.822 321.07V433.632H781.515L781.515 321.07H668.822ZM783.469 321.07L783.469 433.632H896.162V321.07H783.469ZM898.117 321.07L898.116 433.632H1010.81V321.07H898.117ZM1012.76 321.07V433.632H1125.46V321.07H1012.76ZM1127.41 321.07V433.632H1240.1V321.07H1127.41ZM1242.06 321.07V433.632H1354.75V321.07H1242.06ZM1356.71 321.07V433.632H1469.4V321.07H1356.71ZM439.528 435.584V548.146H552.221V435.584H439.528ZM554.175 435.584V548.146H666.868V435.584H554.175ZM668.822 435.584V548.146H781.515V435.584H668.822ZM783.469 435.584V548.146H896.162V435.584H783.469ZM898.116 435.584V548.146H1010.81V435.584H898.116ZM1012.76 435.584V548.146H1125.46V435.584H1012.76ZM1127.41 435.584V548.146H1240.1V435.584H1127.41ZM1242.06 435.584V548.146H1354.75V435.584H1242.06ZM1356.71 435.584V548.146H1469.4V435.584H1356.71ZM439.528 550.098V662.66H552.221V550.098H439.528ZM554.175 550.098V662.66H666.868V550.098H554.175ZM668.822 550.098V662.66H781.515V550.098H668.822ZM783.469 550.098V662.66H896.162V550.098H783.469ZM898.116 550.098V662.66H1010.81V550.098H898.116ZM1012.76 550.098V662.66H1125.46V550.098H1012.76ZM1127.41 550.098V662.66H1240.1V550.098H1127.41ZM1242.06 550.098V662.66H1354.75V550.098H1242.06ZM1356.71 550.098V662.66H1469.4V550.098H1356.71ZM1589.53 92.0425V204.604H1702.22V92.0425H1589.53ZM1704.17 92.0425V204.604H1816.87V92.0425H1704.17ZM1818.82 92.0425V204.604H1931.52V92.0425H1818.82ZM1933.47 92.0425V204.604H2046.16V92.0425H1933.47ZM2048.12 92.0425V204.604H2160.81V92.0425H2048.12ZM2162.76 92.0425V204.604H2275.46V92.0425H2162.76ZM2277.41 92.0425V204.604H2390.1V92.0425H2277.41ZM2392.06 92.0425V204.604H2504.75V92.0425H2392.06ZM2506.71 92.0425V204.604H2619.4V92.0425H2506.71ZM1589.53 206.556V319.118H1702.22V206.556H1589.53ZM1704.17 206.556V319.118H1816.87V206.556H1704.17ZM1818.82 206.556V319.118H1931.52V206.556H1818.82ZM1933.47 206.556V319.118H2046.16V206.556H1933.47ZM2048.12 206.556V319.118H2160.81V206.556H2048.12ZM2162.76 206.556V319.118H2275.46V206.556H2162.76ZM2277.41 206.556V319.118H2390.1V206.556H2277.41ZM2392.06 206.556V319.118H2504.75V206.556H2392.06ZM2506.71 206.556V319.118H2619.4V206.556H2506.71ZM1589.53 321.07V433.632H1702.22V321.07H1589.53ZM1704.17 321.07V433.632H1816.87V321.07H1704.17ZM1818.82 321.07V433.632H1931.52V321.07H1818.82ZM1933.47 321.07V433.632H2046.16V321.07H1933.47ZM2048.12 321.07V433.632H2160.81V321.07H2048.12ZM2162.76 321.07V433.632H2275.46V321.07H2162.76ZM2277.41 321.07V433.632H2390.1V321.07H2277.41ZM2392.06 321.07V433.632H2504.75V321.07H2392.06ZM2506.71 321.07V433.632H2619.4V321.07H2506.71ZM1589.53 435.584V548.146H1702.22L1702.22 435.584H1589.53ZM1704.17 435.584V548.146H1816.87V435.584H1704.17ZM1818.82 435.584V548.146H1931.52V435.584H1818.82ZM1933.47 435.584V548.146H2046.16V435.584H1933.47ZM2048.12 435.584V548.146H2160.81V435.584H2048.12ZM2162.76 435.584V548.146H2275.46V435.584H2162.76ZM2277.41 435.584V548.146H2390.1V435.584H2277.41ZM2392.06 435.584V548.146H2504.75V435.584H2392.06ZM2506.71 435.584V548.146H2619.4V435.584H2506.71ZM1589.53 550.098V662.66H1702.22V550.098H1589.53ZM1704.17 550.098V662.66H1816.87V550.098H1704.17ZM1818.82 550.098V662.66H1931.52V550.098H1818.82ZM1933.47 550.098V662.66H2046.16V550.098H1933.47ZM2048.12 550.098V662.66H2160.81V550.098H2048.12ZM2162.76 550.098V662.66H2275.46V550.098H2162.76ZM2277.41 550.098V662.66H2390.1V550.098H2277.41ZM2392.06 550.098V662.66H2504.75V550.098H2392.06ZM2506.71 550.098V662.66H2619.4V550.098H2506.71Z" fill="url(#paint0_linear_27_126)"/>
</g>
<defs>
<filter id="filter0_f_27_126" x="-637" y="-1281" width="3155" height="2445" filterUnits="userSpaceOnUse" color-interpolation-filters="sRGB">
<feFlood flood-opacity="0" result="BackgroundImageFix"/>
<feBlend mode="normal" in="SourceGraphic" in2="BackgroundImageFix" result="shape"/>
<feGaussianBlur stdDeviation="500" result="effect1_foregroundBlur_27_126"/>
</filter>
<linearGradient id="paint0_linear_27_126" x1="961" y1="-1" x2="961" y2="436.5" gradientUnits="userSpaceOnUse">
<stop stop-color="#2F3C49"/>
<stop offset="1" stop-color="#212123" stop-opacity="0"/>
</linearGradient>
<clipPath id="clip0_27_126">
<rect width="1920" height="1080" fill="white"/>
</clipPath>
</defs>
</svg>
