<svg width="1529" height="197" viewBox="0 0 1529 197" fill="none" xmlns="http://www.w3.org/2000/svg">
<path d="M174.951 0.114014C142.204 0.114014 98.2967 22.5713 68.8015 61.1807H44.3443C26.6808 61.1807 16.559 74.3711 9.5821 88.3095L0.223633 106.981H44.3443L67.2443 129.881L90.1443 152.781V196.886L108.815 187.543C122.754 180.581 135.944 170.444 135.944 152.781V128.323C174.554 98.8283 197.011 54.9061 197.011 22.1743V0.114014H174.951ZM135.944 45.914C139.993 45.914 143.876 47.5225 146.739 50.3855C149.603 53.2486 151.211 57.1317 151.211 61.1807C151.211 65.2297 149.603 69.1128 146.739 71.9758C143.876 74.8389 139.993 76.4473 135.944 76.4473C131.895 76.4473 128.012 74.8389 125.149 71.9758C122.286 69.1128 120.678 65.2297 120.678 61.1807C120.678 57.1317 122.286 53.2486 125.149 50.3855C128.012 47.5225 131.895 45.914 135.944 45.914ZM36.711 137.514L29.0776 145.147C18.0551 156.17 13.811 183.314 13.811 183.314C13.811 183.314 39.7338 180.291 51.9776 168.047L59.611 160.414L36.711 137.514Z" fill="url(#paint0_linear_26_3)"/>
<path d="M1437.29 196.917V173.228H1495.44C1499.46 173.228 1501.47 171.074 1501.47 166.767V139.848H1497.59C1496.44 142.289 1494.65 144.729 1492.21 147.17C1489.77 149.611 1486.46 151.621 1482.3 153.2C1478.14 154.779 1472.83 155.569 1466.36 155.569C1458.04 155.569 1450.72 153.702 1444.4 149.97C1438.23 146.093 1433.42 140.781 1429.97 134.033C1426.52 127.286 1424.8 119.533 1424.8 110.775V47.0305H1451.94V108.622C1451.94 116.662 1453.87 122.691 1457.75 126.711C1461.77 130.731 1467.44 132.741 1474.76 132.741C1483.09 132.741 1489.55 130.013 1494.15 124.558C1498.74 118.959 1501.04 111.206 1501.04 101.3V47.0305H1528.17V172.797C1528.17 180.119 1526.02 185.934 1521.71 190.241C1517.4 194.691 1511.66 196.917 1504.48 196.917H1437.29Z" fill="url(#paint1_linear_26_3)"/>
<path d="M1376.98 153.846C1369.95 153.846 1364.2 151.693 1359.75 147.385C1355.45 142.935 1353.29 137.049 1353.29 129.726V69.4275H1326.59V47.0307H1353.29V13.8662H1380.43V47.0307H1409.71V69.4275H1380.43V124.989C1380.43 129.296 1382.44 131.449 1386.46 131.449H1407.13V153.846H1376.98Z" fill="url(#paint2_linear_26_3)"/>
<path d="M1287.47 153.846V47.0306H1314.61V153.846H1287.47ZM1301.04 34.5401C1296.16 34.5401 1292 32.9608 1288.55 29.8023C1285.25 26.6438 1283.6 22.4803 1283.6 17.3118C1283.6 12.1433 1285.25 7.9798 1288.55 4.82128C1292 1.66276 1296.16 0.0834961 1301.04 0.0834961C1306.07 0.0834961 1310.23 1.66276 1313.53 4.82128C1316.83 7.9798 1318.49 12.1433 1318.49 17.3118C1318.49 22.4803 1316.83 26.6438 1313.53 29.8023C1310.23 32.9608 1306.07 34.5401 1301.04 34.5401Z" fill="url(#paint3_linear_26_3)"/>
<path d="M1200.5 153.846L1166.48 47.0305H1195.34L1220.1 134.033H1223.98L1248.74 47.0305H1277.6L1243.57 153.846H1200.5Z" fill="url(#paint4_linear_26_3)"/>
<path d="M1101.48 156.861C1093.87 156.861 1087.05 155.569 1081.02 152.985C1075 150.257 1070.19 146.38 1066.6 141.355C1063.15 136.187 1061.43 129.942 1061.43 122.62C1061.43 115.298 1063.15 109.196 1066.6 104.315C1070.19 99.2897 1075.07 95.5569 1081.24 93.1163C1087.56 90.532 1094.74 89.2399 1102.78 89.2399H1132.06V83.21C1132.06 78.1851 1130.48 74.0934 1127.33 70.9348C1124.17 67.6327 1119.14 65.9817 1112.25 65.9817C1105.5 65.9817 1100.48 67.561 1097.18 70.7195C1093.87 73.7344 1091.72 77.6826 1090.72 82.5639L1065.73 74.1651C1067.46 68.7095 1070.19 63.7564 1073.92 59.3057C1077.79 54.7115 1082.89 51.0505 1089.21 48.3227C1095.67 45.4513 1103.49 44.0156 1112.68 44.0156C1126.75 44.0156 1137.88 47.5331 1146.06 54.568C1154.25 61.6028 1158.34 71.7963 1158.34 85.1482V124.989C1158.34 129.296 1160.35 131.449 1164.37 131.449H1172.98V153.846H1154.89C1149.58 153.846 1145.2 152.554 1141.75 149.97C1138.31 147.385 1136.59 143.94 1136.59 139.633V139.417H1132.49C1131.92 141.14 1130.63 143.437 1128.62 146.309C1126.61 149.036 1123.45 151.477 1119.14 153.631C1114.84 155.784 1108.95 156.861 1101.48 156.861ZM1106.22 134.895C1113.83 134.895 1120 132.813 1124.74 128.65C1129.62 124.343 1132.06 118.672 1132.06 111.637V109.483H1104.71C1099.69 109.483 1095.74 110.56 1092.87 112.713C1090 114.867 1088.56 117.882 1088.56 121.758C1088.56 125.635 1090.07 128.793 1093.08 131.234C1096.1 133.675 1100.48 134.895 1106.22 134.895Z" fill="url(#paint5_linear_26_3)"/>
<path d="M994.072 153.846V47.0306H1020.78V59.0904H1024.65C1026.23 54.7833 1028.82 51.6248 1032.41 49.6148C1036.14 47.6048 1040.45 46.5999 1045.33 46.5999H1058.25V70.7195H1044.9C1038 70.7195 1032.33 72.5859 1027.88 76.3187C1023.43 79.9079 1021.21 85.5071 1021.21 93.1162V153.846H994.072Z" fill="url(#paint6_linear_26_3)"/>
<path d="M911.353 156.861C901.016 156.861 891.612 154.564 883.141 149.97C874.814 145.232 868.138 138.412 863.114 129.511C858.232 120.466 855.792 109.483 855.792 96.5619V60.3825C855.792 41.0007 861.247 26.1413 872.158 15.8043C883.07 5.32377 897.857 0.0834961 916.521 0.0834961C935.042 0.0834961 949.327 5.03663 959.377 14.9429C969.57 24.7056 974.667 37.9857 974.667 54.7833V55.6447H946.671V53.9219C946.671 48.6099 945.522 43.8003 943.225 39.4932C941.072 35.1861 937.769 31.8123 933.319 29.3716C928.868 26.7874 923.269 25.4952 916.521 25.4952C906.471 25.4952 898.575 28.582 892.832 34.7554C887.09 40.9289 884.218 49.3277 884.218 59.9518V96.9927C884.218 107.473 887.09 115.944 892.832 122.404C898.575 128.721 906.615 131.88 916.952 131.88C927.289 131.88 934.826 129.152 939.564 123.697C944.302 118.241 946.671 111.35 946.671 103.023V100.869H910.922V76.7494H974.667V153.846H948.394V139.417H944.517C943.512 141.858 941.861 144.442 939.564 147.17C937.411 149.898 934.108 152.195 929.658 154.061C925.207 155.928 919.105 156.861 911.353 156.861Z" fill="url(#paint7_linear_26_3)"/>
<path d="M811.417 153.846C804.382 153.846 798.64 151.693 794.189 147.385C789.882 142.935 787.728 137.049 787.728 129.726V69.4275H761.024V47.0307H787.728V13.8662H814.863V47.0307H844.151V69.4275H814.863V124.989C814.863 129.296 816.873 131.449 820.893 131.449H841.567V153.846H811.417Z" fill="url(#paint8_linear_26_3)"/>
<path d="M707.068 156.861C696.444 156.861 687.04 154.636 678.857 150.185C670.817 145.591 664.5 139.202 659.905 131.019C655.455 122.692 653.229 112.929 653.229 101.73V99.1462C653.229 87.9478 655.455 78.2569 659.905 70.0734C664.356 61.7464 670.601 55.3576 678.641 50.907C686.681 46.3127 696.013 44.0156 706.637 44.0156C717.118 44.0156 726.234 46.3845 733.987 51.1223C741.74 55.7165 747.77 62.1771 752.077 70.5041C756.384 78.6876 758.537 88.2349 758.537 99.1462V108.406H680.795C681.082 115.728 683.81 121.687 688.978 126.281C694.147 130.875 700.464 133.172 707.929 133.172C715.538 133.172 721.138 131.521 724.727 128.219C728.316 124.917 731.044 121.256 732.91 117.236L755.092 128.865C753.082 132.598 750.139 136.689 746.262 141.14C742.529 145.447 737.505 149.18 731.188 152.339C724.87 155.353 716.831 156.861 707.068 156.861ZM681.01 88.1631H730.972C730.398 81.9897 727.885 77.0365 723.435 73.3037C719.128 69.5709 713.457 67.7045 706.422 67.7045C699.1 67.7045 693.285 69.5709 688.978 73.3037C684.671 77.0365 682.015 81.9897 681.01 88.1631Z" fill="url(#paint9_linear_26_3)"/>
<path d="M534.309 153.846V47.0307H561.013V61.0287H564.889C566.612 57.2959 569.842 53.7784 574.58 50.4763C579.318 47.0307 586.496 45.3079 596.116 45.3079C604.443 45.3079 611.693 47.246 617.866 51.1224C624.183 54.8552 629.065 60.0955 632.51 66.8432C635.956 73.4474 637.679 81.2001 637.679 90.1014V153.846H610.544V92.255C610.544 84.2151 608.534 78.1852 604.514 74.1652C600.638 70.1453 595.039 68.1353 587.717 68.1353C579.39 68.1353 572.929 70.9349 568.335 76.5341C563.741 81.9898 561.444 89.6707 561.444 99.577V153.846H534.309Z" fill="url(#paint10_linear_26_3)"/>
<path d="M451.586 156.861C443.977 156.861 437.157 155.569 431.127 152.985C425.098 150.257 420.288 146.38 416.699 141.355C413.253 136.187 411.53 129.942 411.53 122.62C411.53 115.298 413.253 109.196 416.699 104.315C420.288 99.2897 425.169 95.5569 431.343 93.1163C437.66 90.532 444.838 89.2399 452.878 89.2399H482.166V83.21C482.166 78.1851 480.587 74.0934 477.428 70.9348C474.27 67.6327 469.245 65.9817 462.354 65.9817C455.606 65.9817 450.581 67.561 447.279 70.7195C443.977 73.7344 441.823 77.6826 440.818 82.5639L415.837 74.1651C417.56 68.7095 420.288 63.7564 424.021 59.3057C427.897 54.7115 432.994 51.0505 439.311 48.3227C445.772 45.4513 453.596 44.0156 462.784 44.0156C476.854 44.0156 487.981 47.5331 496.164 54.568C504.348 61.6028 508.439 71.7963 508.439 85.1482V124.989C508.439 129.296 510.449 131.449 514.469 131.449H523.083V153.846H504.994C499.682 153.846 495.303 152.554 491.857 149.97C488.412 147.385 486.689 143.94 486.689 139.633V139.417H482.597C482.023 141.14 480.731 143.437 478.721 146.309C476.711 149.036 473.552 151.477 469.245 153.631C464.938 155.784 459.052 156.861 451.586 156.861ZM456.324 134.895C463.933 134.895 470.106 132.813 474.844 128.65C479.726 124.343 482.166 118.672 482.166 111.637V109.483H454.816C449.791 109.483 445.843 110.56 442.972 112.713C440.101 114.867 438.665 117.882 438.665 121.758C438.665 125.635 440.172 128.793 443.187 131.234C446.202 133.675 450.581 134.895 456.324 134.895Z" fill="url(#paint11_linear_26_3)"/>
<path d="M369.833 153.846V3.09839H396.967V153.846H369.833Z" fill="url(#paint12_linear_26_3)"/>
<path d="M247.406 153.846V3.09839H309.428C318.903 3.09839 327.23 5.03657 334.409 8.91294C341.731 12.6457 347.402 17.9578 351.422 24.8491C355.585 31.7404 357.667 39.9239 357.667 49.3994V52.4144C357.667 61.7464 355.513 69.9298 351.206 76.9647C347.043 83.856 341.3 89.2399 333.978 93.1162C326.799 96.849 318.616 98.7154 309.428 98.7154H275.832V153.846H247.406ZM275.832 72.873H306.628C313.376 72.873 318.831 71.0066 322.995 67.2738C327.158 63.541 329.24 58.4443 329.24 51.9837V49.8301C329.24 43.3695 327.158 38.2728 322.995 34.54C318.831 30.8072 313.376 28.9408 306.628 28.9408H275.832V72.873Z" fill="url(#paint13_linear_26_3)"/>
<defs>
<linearGradient id="paint0_linear_26_3" x1="86.5884" y1="546.361" x2="128.688" y2="-90.7244" gradientUnits="userSpaceOnUse">
<stop stop-color="#838383"/>
<stop offset="1" stop-color="white"/>
</linearGradient>
<linearGradient id="paint1_linear_26_3" x1="1470.17" y1="463.12" x2="1516.45" y2="-19.8476" gradientUnits="userSpaceOnUse">
<stop stop-color="#838383"/>
<stop offset="1" stop-color="white"/>
</linearGradient>
<linearGradient id="paint2_linear_26_3" x1="1363.07" y1="402.456" x2="1413.11" y2="-47.1652" gradientUnits="userSpaceOnUse">
<stop stop-color="#838383"/>
<stop offset="1" stop-color="white"/>
</linearGradient>
<linearGradient id="paint3_linear_26_3" x1="1298.91" y1="426.934" x2="1433.16" y2="-33.9714" gradientUnits="userSpaceOnUse">
<stop stop-color="#838383"/>
<stop offset="1" stop-color="white"/>
</linearGradient>
<linearGradient id="paint4_linear_26_3" x1="1215.25" y1="343.554" x2="1237.22" y2="-2.39417" gradientUnits="userSpaceOnUse">
<stop stop-color="#838383"/>
<stop offset="1" stop-color="white"/>
</linearGradient>
<linearGradient id="paint5_linear_26_3" x1="1110.39" y1="357.278" x2="1134.81" y2="-8.04135" gradientUnits="userSpaceOnUse">
<stop stop-color="#838383"/>
<stop offset="1" stop-color="white"/>
</linearGradient>
<linearGradient id="paint6_linear_26_3" x1="1022.24" y1="344.319" x2="1060.29" y2="-0.223434" gradientUnits="userSpaceOnUse">
<stop stop-color="#838383"/>
<stop offset="1" stop-color="white"/>
</linearGradient>
<linearGradient id="paint7_linear_26_3" x1="907.963" y1="435.304" x2="952.062" y2="-70.6647" gradientUnits="userSpaceOnUse">
<stop stop-color="#838383"/>
<stop offset="1" stop-color="white"/>
</linearGradient>
<linearGradient id="paint8_linear_26_3" x1="797.506" y1="402.456" x2="847.543" y2="-47.1652" gradientUnits="userSpaceOnUse">
<stop stop-color="#838383"/>
<stop offset="1" stop-color="white"/>
</linearGradient>
<linearGradient id="paint9_linear_26_3" x1="699.446" y1="357.278" x2="725.303" y2="-7.84295" gradientUnits="userSpaceOnUse">
<stop stop-color="#838383"/>
<stop offset="1" stop-color="white"/>
</linearGradient>
<linearGradient id="paint10_linear_26_3" x1="579.675" y1="346.614" x2="604.049" y2="-4.64124" gradientUnits="userSpaceOnUse">
<stop stop-color="#838383"/>
<stop offset="1" stop-color="white"/>
</linearGradient>
<linearGradient id="paint11_linear_26_3" x1="460.488" y1="357.278" x2="484.91" y2="-8.04135" gradientUnits="userSpaceOnUse">
<stop stop-color="#838383"/>
<stop offset="1" stop-color="white"/>
</linearGradient>
<linearGradient id="paint12_linear_26_3" x1="381.741" y1="421.579" x2="540.34" y2="-10.3955" gradientUnits="userSpaceOnUse">
<stop stop-color="#838383"/>
<stop offset="1" stop-color="white"/>
</linearGradient>
<linearGradient id="paint13_linear_26_3" x1="295.796" y1="421.579" x2="339.729" y2="-64.655" gradientUnits="userSpaceOnUse">
<stop stop-color="#838383"/>
<stop offset="1" stop-color="white"/>
</linearGradient>
</defs>
</svg>
