<svg width="1591" height="245" viewBox="0 0 1591 245" fill="none" xmlns="http://www.w3.org/2000/svg">
<path d="M176.404 30.5332C143.657 30.5332 99.7503 52.9905 70.2551 91.5999H45.7979C28.1344 91.5999 18.0126 104.79 11.0357 118.729L1.67725 137.4H45.7979L68.6979 160.3L91.5979 183.2V227.305L110.269 217.962C124.208 211 137.398 200.863 137.398 183.2V158.743C176.007 129.247 198.465 85.3253 198.465 52.5935V30.5332H176.404ZM137.398 76.3332C141.447 76.3332 145.33 77.9417 148.193 80.8047C151.056 83.6678 152.665 87.5509 152.665 91.5999C152.665 95.6488 151.056 99.532 148.193 102.395C145.33 105.258 141.447 106.867 137.398 106.867C133.349 106.867 129.466 105.258 126.603 102.395C123.74 99.532 122.131 95.6488 122.131 91.5999C122.131 87.5509 123.74 83.6678 126.603 80.8047C129.466 77.9417 133.349 76.3332 137.398 76.3332ZM38.1646 167.933L30.5312 175.567C19.5087 186.589 15.2646 213.733 15.2646 213.733C15.2646 213.733 41.1874 210.71 53.4312 198.467L61.0646 190.833L38.1646 167.933Z" fill="white"/>
<path d="M293.608 198V47.2524H355.63C365.106 47.2524 373.433 49.1906 380.611 53.067C387.933 56.7998 393.604 62.1118 397.624 69.0032C401.787 75.8945 403.869 84.0779 403.869 93.5535V96.5684C403.869 105.9 401.716 114.084 397.409 121.119C393.245 128.01 387.502 133.394 380.18 137.27C373.002 141.003 364.818 142.869 355.63 142.869H322.035V198H293.608ZM322.035 117.027H352.83C359.578 117.027 365.034 115.161 369.197 111.428C373.361 107.695 375.443 102.598 375.443 96.1377V93.9842C375.443 87.5236 373.361 82.4269 369.197 78.6941C365.034 74.9613 359.578 73.0949 352.83 73.0949H322.035V117.027ZM416.035 198V47.2524H443.17V198H416.035ZM497.789 201.015C490.179 201.015 483.36 199.723 477.33 197.139C471.3 194.411 466.491 190.534 462.901 185.509C459.456 180.341 457.733 174.096 457.733 166.774C457.733 159.452 459.456 153.35 462.901 148.469C466.491 143.444 471.372 139.711 477.545 137.27C483.862 134.686 491.041 133.394 499.081 133.394H528.369V127.364C528.369 122.339 526.79 118.247 523.631 115.089C520.473 111.787 515.448 110.136 508.556 110.136C501.809 110.136 496.784 111.715 493.482 114.873C490.179 117.888 488.026 121.837 487.021 126.718L462.04 118.319C463.763 112.864 466.491 107.91 470.223 103.46C474.1 98.8655 479.196 95.2045 485.513 92.4767C491.974 89.6053 499.799 88.1696 508.987 88.1696C523.057 88.1696 534.183 91.6871 542.367 98.722C550.55 105.757 554.642 115.95 554.642 129.302V169.143C554.642 173.45 556.652 175.603 560.672 175.603H569.286V198H551.196C545.884 198 541.505 196.708 538.06 194.124C534.614 191.539 532.891 188.094 532.891 183.787V183.571H528.8C528.225 185.294 526.933 187.591 524.923 190.463C522.913 193.19 519.755 195.631 515.448 197.785C511.141 199.938 505.254 201.015 497.789 201.015ZM502.526 179.049C510.136 179.049 516.309 176.967 521.047 172.804C525.928 168.497 528.369 162.826 528.369 155.791V153.637H501.019C495.994 153.637 492.046 154.714 489.174 156.867C486.303 159.021 484.867 162.036 484.867 165.912C484.867 169.789 486.375 172.947 489.39 175.388C492.405 177.829 496.784 179.049 502.526 179.049ZM580.511 198V91.1846H607.215V105.183H611.092C612.814 101.45 616.045 97.9323 620.782 94.6302C625.52 91.1846 632.699 89.4618 642.318 89.4618C650.645 89.4618 657.895 91.3999 664.069 95.2763C670.386 99.0091 675.267 104.249 678.713 110.997C682.158 117.601 683.881 125.354 683.881 134.255V198H656.747V136.409C656.747 128.369 654.737 122.339 650.717 118.319C646.84 114.299 641.241 112.289 633.919 112.289C625.592 112.289 619.131 115.089 614.537 120.688C609.943 126.144 607.646 133.825 607.646 143.731V198H580.511ZM753.27 201.015C742.646 201.015 733.242 198.79 725.059 194.339C717.019 189.745 710.702 183.356 706.108 175.173C701.657 166.846 699.432 157.083 699.432 145.884V143.3C699.432 132.102 701.657 122.411 706.108 114.227C710.559 105.9 716.804 99.5116 724.844 95.061C732.884 90.4667 742.216 88.1696 752.84 88.1696C763.32 88.1696 772.437 90.5385 780.19 95.2763C787.942 99.8705 793.972 106.331 798.279 114.658C802.586 122.842 804.74 132.389 804.74 143.3V152.56H726.997C727.284 159.882 730.012 165.841 735.181 170.435C740.349 175.029 746.666 177.326 754.132 177.326C761.741 177.326 767.34 175.675 770.929 172.373C774.519 169.071 777.246 165.41 779.113 161.39L801.294 173.019C799.284 176.752 796.341 180.843 792.465 185.294C788.732 189.601 783.707 193.334 777.39 196.493C771.073 199.507 763.033 201.015 753.27 201.015ZM727.213 132.317H777.175C776.6 126.144 774.088 121.191 769.637 117.458C765.33 113.725 759.659 111.859 752.624 111.859C745.302 111.859 739.488 113.725 735.181 117.458C730.874 121.191 728.218 126.144 727.213 132.317ZM857.619 198C850.584 198 844.842 195.846 840.391 191.539C836.084 187.089 833.93 181.202 833.93 173.88V113.581H807.227V91.1846H833.93V58.0201H861.065V91.1846H890.353V113.581H861.065V169.143C861.065 173.45 863.075 175.603 867.095 175.603H887.769V198H857.619ZM957.555 201.015C947.218 201.015 937.814 198.718 929.344 194.124C921.017 189.386 914.341 182.566 909.316 173.665C904.435 164.62 901.994 153.637 901.994 140.716V104.537C901.994 85.1547 907.45 70.2953 918.361 59.9583C929.272 49.4778 944.06 44.2375 962.724 44.2375C981.244 44.2375 995.529 49.1906 1005.58 59.0969C1015.77 68.8596 1020.87 82.1397 1020.87 98.9373V99.7987H992.873V98.0759C992.873 92.7638 991.725 87.9543 989.428 83.6472C987.274 79.3401 983.972 75.9663 979.521 73.5256C975.071 70.9413 969.471 69.6492 962.724 69.6492C952.674 69.6492 944.778 72.736 939.035 78.9094C933.292 85.0829 930.421 93.4817 930.421 104.106V141.147C930.421 151.627 933.292 160.098 939.035 166.558C944.778 172.875 952.817 176.034 963.154 176.034C973.491 176.034 981.029 173.306 985.767 167.85C990.504 162.395 992.873 155.504 992.873 147.177V145.023H957.124V120.903H1020.87V198H994.596V183.571H990.72C989.715 186.012 988.064 188.596 985.767 191.324C983.613 194.052 980.311 196.349 975.86 198.215C971.41 200.082 965.308 201.015 957.555 201.015ZM1040.27 198V91.1846H1066.98V103.244H1070.85C1072.43 98.9373 1075.02 95.7788 1078.61 93.7688C1082.34 91.7589 1086.65 90.7539 1091.53 90.7539H1104.45V114.873H1091.1C1084.21 114.873 1078.54 116.74 1074.09 120.473C1069.63 124.062 1067.41 129.661 1067.41 137.27V198H1040.27ZM1147.69 201.015C1140.08 201.015 1133.26 199.723 1127.23 197.139C1121.2 194.411 1116.39 190.534 1112.8 185.509C1109.35 180.341 1107.63 174.096 1107.63 166.774C1107.63 159.452 1109.35 153.35 1112.8 148.469C1116.39 143.444 1121.27 139.711 1127.44 137.27C1133.76 134.686 1140.94 133.394 1148.98 133.394H1178.27V127.364C1178.27 122.339 1176.69 118.247 1173.53 115.089C1170.37 111.787 1165.34 110.136 1158.45 110.136C1151.71 110.136 1146.68 111.715 1143.38 114.873C1140.08 117.888 1137.92 121.837 1136.92 126.718L1111.94 118.319C1113.66 112.864 1116.39 107.91 1120.12 103.46C1124 98.8655 1129.09 95.2045 1135.41 92.4767C1141.87 89.6053 1149.7 88.1696 1158.88 88.1696C1172.95 88.1696 1184.08 91.6871 1192.26 98.722C1200.45 105.757 1204.54 115.95 1204.54 129.302V169.143C1204.54 173.45 1206.55 175.603 1210.57 175.603H1219.18V198H1201.09C1195.78 198 1191.4 196.708 1187.96 194.124C1184.51 191.539 1182.79 188.094 1182.79 183.787V183.571H1178.7C1178.12 185.294 1176.83 187.591 1174.82 190.463C1172.81 193.19 1169.65 195.631 1165.34 197.785C1161.04 199.938 1155.15 201.015 1147.69 201.015ZM1152.42 179.049C1160.03 179.049 1166.21 176.967 1170.94 172.804C1175.83 168.497 1178.27 162.826 1178.27 155.791V153.637H1150.92C1145.89 153.637 1141.94 154.714 1139.07 156.867C1136.2 159.021 1134.76 162.036 1134.76 165.912C1134.76 169.789 1136.27 172.947 1139.29 175.388C1142.3 177.829 1146.68 179.049 1152.42 179.049ZM1246.71 198L1212.68 91.1846H1241.54L1266.3 178.187H1270.18L1294.95 91.1846H1323.8L1289.78 198H1246.71ZM1333.68 198V91.1846H1360.81V198H1333.68ZM1347.24 78.6941C1342.36 78.6941 1338.2 77.1148 1334.75 73.9563C1331.45 70.7978 1329.8 66.6343 1329.8 61.4658C1329.8 56.2973 1331.45 52.1338 1334.75 48.9753C1338.2 45.8167 1342.36 44.2375 1347.24 44.2375C1352.27 44.2375 1356.43 45.8167 1359.73 48.9753C1363.04 52.1338 1364.69 56.2973 1364.69 61.4658C1364.69 66.6343 1363.04 70.7978 1359.73 73.9563C1356.43 77.1148 1352.27 78.6941 1347.24 78.6941ZM1423.18 198C1416.15 198 1410.41 195.846 1405.96 191.539C1401.65 187.089 1399.49 181.202 1399.49 173.88V113.581H1372.79V91.1846H1399.49V58.0201H1426.63V91.1846H1455.92V113.581H1426.63V169.143C1426.63 173.45 1428.64 175.603 1432.66 175.603H1453.33V198H1423.18ZM1483.49 241.071V217.382H1541.64C1545.66 217.382 1547.67 215.228 1547.67 210.921V184.002H1543.79C1542.64 186.443 1540.85 188.883 1538.41 191.324C1535.97 193.765 1532.67 195.775 1528.5 197.354C1524.34 198.933 1519.03 199.723 1512.57 199.723C1504.24 199.723 1496.92 197.856 1490.6 194.124C1484.43 190.247 1479.62 184.935 1476.17 178.187C1472.73 171.44 1471 163.687 1471 154.929V91.1846H1498.14V152.776C1498.14 160.816 1500.08 166.846 1503.95 170.865C1507.97 174.885 1513.64 176.895 1520.97 176.895C1529.29 176.895 1535.75 174.168 1540.35 168.712C1544.94 163.113 1547.24 155.36 1547.24 145.454V91.1846H1574.37V216.951C1574.37 224.273 1572.22 230.088 1567.91 234.395C1563.61 238.845 1557.86 241.071 1550.68 241.071H1483.49Z" fill="url(#paint0_linear_19_23)"/>
<defs>
<linearGradient id="paint0_linear_19_23" x1="294.511" y1="122.872" x2="1590.39" y2="122.872" gradientUnits="userSpaceOnUse">
<stop stop-color="#F5F5F5"/>
<stop offset="1" stop-color="white"/>
</linearGradient>
</defs>
</svg>
